# File created by Blade
# Date/Time:  Tue Jan 27 18:50:05 2015
# Frame Rate: 120.000 fps
#------------------------------------------------------
:FULLY-SPECIFIED
:DEGREES
2893
root -0.436879 31.255194 -5.276155 32.957450 -67.858257 -36.809219
Spine 23.285004 17.713418 6.446701
Head -13.158992 16.628348 2.189958
LeftShoulder -16.933406 15.748848 15.715357
LeftArm 28.039391 -15.409314 -71.536813
LeftForeArm -32.409790 0.000000 144.124278
LeftHand -18.980923 -0.000000 10.479575
LeftHandThumb1 -26.253704 0.000000 33.147579
RightShoulder 10.977292 25.465794 -7.708462
RightArm 68.890853 -67.627600 51.124414
RightForeArm -11.106798 -0.000000 59.030201
RightHand -6.618570 -0.000000 -0.574101
RightHandThumb1 -24.326973 -0.000000 -32.862282
LeftUpLeg -11.321451 16.389453 -2.849123
LeftLeg 28.638984 -0.000000 -0.000000
LeftFoot -43.867948 35.470637 -31.276253
LeftToeBase 6.210755 -0.000000 -0.000000
RightUpLeg -106.163515 -42.825376 39.920833
RightLeg 87.925146 -0.000000 -0.000000
RightFoot -31.315546 -32.389382 22.279536
RightToeBase 14.913382 -0.000000 -0.000000
2894
root -0.435127 31.251984 -5.256808 33.509274 -68.138545 -37.355177
Spine 23.180723 17.541368 6.400808
Head -12.953209 16.949177 2.208200
LeftShoulder -16.935254 15.745246 15.751861
LeftArm 27.741505 -15.250662 -71.599473
LeftForeArm -32.110625 -0.000000 144.295265
LeftHand -18.910721 -0.000000 11.205326
LeftHandThumb1 -26.253704 0.000000 33.147579
RightShoulder 10.837867 25.375296 -7.647972
RightArm 68.841479 -67.785703 51.225613
RightForeArm -11.425100 -0.000000 59.019205
RightHand -6.518242 0.000000 0.048100
RightHandThumb1 -24.326973 -0.000000 -32.862282
LeftUpLeg -11.326537 16.472878 -2.874744
LeftLeg 28.632522 -0.000000 -0.000000
LeftFoot -43.967020 35.643253 -31.360343
LeftToeBase 6.192168 -0.000000 -0.000000
RightUpLeg -105.443812 -42.767027 39.421061
RightLeg 87.547527 -0.000000 -0.000000
RightFoot -31.509031 -32.013194 22.488818
RightToeBase 15.273028 -0.000000 -0.000000
2895
root -0.434419 31.248781 -5.238118 33.992716 -68.399099 -37.837284
Spine 23.082971 17.380893 6.344399
Head -12.752769 17.268583 2.243193
LeftShoulder -16.909891 15.749429 15.789295
LeftArm 27.520289 -15.187991 -71.678571
LeftForeArm -32.134685 -0.000000 144.390198
LeftHand -18.940235 -0.000000 11.218205
LeftHandThumb1 -26.253704 0.000000 33.147579
RightShoulder 10.697797 25.426332 -7.582959
RightArm 68.971601 -68.026567 51.118144
RightForeArm -11.234159 0.000000 58.964673
RightHand -6.502972 -0.000000 0.118111
RightHandThumb1 -24.326973 -0.000000 -32.862282
LeftUpLeg -11.314274 16.557192 -2.916699
LeftLeg 28.594073 -0.000000 -0.000000
LeftFoot -44.100503 35.814768 -31.480287
LeftToeBase 6.178049 -0.000000 -0.000000
RightUpLeg -104.679880 -42.739629 38.852487
RightLeg 87.196995 -0.000000 -0.000000
RightFoot -31.608228 -31.765190 22.639240
RightToeBase 15.082418 -0.000000 -0.000000
2896
root -0.437179 31.248441 -5.219657 34.519963 -68.607857 -38.327145
Spine 22.921791 17.137752 6.296195
Head -12.542859 17.568936 2.238513
LeftShoulder -16.961932 15.797354 15.749017
LeftArm 27.356459 -15.117815 -71.664440
LeftForeArm -31.912517 -0.000000 144.382029
LeftHand -18.855664 -0.000000 10.713937
LeftHandThumb1 -26.253704 0.000000 33.147579
RightShoulder 10.612560 25.372481 -7.494808
RightArm 69.295097 -68.201590 50.828086
RightForeArm -11.202196 -0.000000 58.861462
RightHand -6.490398 0.000000 0.399775
RightHandThumb1 -24.326973 -0.000000 -32.862282
LeftUpLeg -11.330096 16.620701 -2.940520
LeftLeg 28.534158 -0.000000 -0.000000
LeftFoot -44.209345 36.012645 -31.578523
LeftToeBase 6.163184 -0.000000 -0.000000
RightUpLeg -103.911040 -42.737103 38.273125
RightLeg 86.883819 -0.000000 -0.000000
RightFoot -31.673007 -31.524440 22.813477
RightToeBase 15.075457 -0.000000 -0.000000
2897
root -0.434523 31.248312 -5.208132 34.957334 -68.781551 -38.779855
Spine 22.844371 16.979635 6.300470
Head -12.300700 17.764173 2.306610
LeftShoulder -16.890136 15.825098 15.841026
LeftArm 27.286003 -14.896307 -71.712385
LeftForeArm -31.749818 -0.000000 144.385679
LeftHand -19.067233 0.000000 10.928550
LeftHandThumb1 -26.253704 0.000000 33.147579
RightShoulder 10.495093 25.396338 -7.462467
RightArm 69.089748 -68.323731 51.023737
RightForeArm -11.203646 -0.000000 58.812418
RightHand -6.437121 -0.000000 0.690903
RightHandThumb1 -24.326973 -0.000000 -32.862282
LeftUpLeg -11.312286 16.700739 -2.936563
LeftLeg 28.488078 -0.000000 -0.000000
LeftFoot -44.309522 36.145560 -31.669660
LeftToeBase 6.160000 -0.000000 -0.000000
RightUpLeg -103.032745 -42.764686 37.612121
RightLeg 86.555247 -0.000000 -0.000000
RightFoot -31.680588 -31.474735 22.885104
RightToeBase 14.947506 -0.000000 -0.000000
2898
root -0.431776 31.250990 -5.201017 35.473412 -68.927381 -39.287376
Spine 22.751750 16.832532 6.319065
Head -12.116315 17.967296 2.366859
LeftShoulder -16.806596 15.793991 15.934360
LeftArm 27.199465 -14.711206 -71.715684
LeftForeArm -31.682752 -0.000000 144.351054
LeftHand -19.103413 -0.000000 10.848136
LeftHandThumb1 -26.253704 0.000000 33.147579
RightShoulder 10.337121 25.270457 -7.441160
RightArm 69.520895 -68.353379 50.609091
RightForeArm -11.120319 -0.000000 58.710820
RightHand -6.321500 0.000000 0.858284
RightHandThumb1 -24.326973 -0.000000 -32.862282
LeftUpLeg -11.329527 16.831850 -2.897186
LeftLeg 28.460176 -0.000000 -0.000000
LeftFoot -44.358264 36.223428 -31.715776
LeftToeBase 6.151762 -0.000000 -0.000000
RightUpLeg -102.071021 -42.761952 36.904575
RightLeg 86.205001 -0.000000 -0.000000
RightFoot -31.636539 -31.614747 22.744768
RightToeBase 15.109400 -0.000000 -0.000000
2899
root -0.430332 31.254503 -5.195090 35.952802 -69.055901 -39.767946
Spine 22.674870 16.703807 6.340879
Head -11.962498 18.110896 2.459881
LeftShoulder -16.709348 15.755855 16.070214
LeftArm 27.146797 -14.413402 -71.692033
LeftForeArm -31.229976 -0.000000 144.268249
LeftHand -19.146569 0.000000 11.068620
LeftHandThumb1 -26.253704 0.000000 33.147579
RightShoulder 10.168205 25.228854 -7.421647
RightArm 69.544113 -68.406172 50.584339
RightForeArm -11.120450 0.000000 58.631136
RightHand -6.277093 -0.000000 1.171771
RightHandThumb1 -24.326973 -0.000000 -32.862282
LeftUpLeg -11.333167 16.986627 -2.845839
LeftLeg 28.432246 -0.000000 -0.000000
LeftFoot -44.371585 36.257441 -31.721144
LeftToeBase 6.106429 -0.000000 -0.000000
RightUpLeg -101.123225 -42.773306 36.209574
RightLeg 85.866921 -0.000000 -0.000000
RightFoot -31.588320 -31.813412 22.749895
RightToeBase 15.508868 -0.000000 -0.000000
2900
root -0.425694 31.257118 -5.192315 36.374556 -69.130434 -40.140910
Spine 22.547909 16.540242 6.343160
Head -11.802529 18.232502 2.579692
LeftShoulder -16.582701 15.683509 16.223206
LeftArm 27.102130 -14.161464 -71.672104
LeftForeArm -31.037230 0.000000 144.174911
LeftHand -19.333971 -0.000000 11.221326
LeftHandThumb1 -26.253704 0.000000 33.147579
RightShoulder 10.055187 25.229451 -7.388912
RightArm 69.327489 -68.474730 50.806223
RightForeArm -11.044630 -0.000000 58.537344
RightHand -6.190016 -0.000000 1.244583
RightHandThumb1 -24.326973 -0.000000 -32.862282
LeftUpLeg -11.409187 17.119840 -2.806574
LeftLeg 28.441024 -0.000000 -0.000000
LeftFoot -44.373751 36.246960 -31.716663
LeftToeBase 6.103420 -0.000000 -0.000000
RightUpLeg -100.234040 -42.805546 35.548073
RightLeg 85.562331 -0.000000 -0.000000
RightFoot -31.508979 -31.911691 22.700897
RightToeBase 15.144446 -0.000000 -0.000000
2901
root -0.419647 31.260549 -5.191095 36.742203 -69.184475 -40.456536
Spine 22.435899 16.354969 6.345807
Head -11.685577 18.336761 2.657563
LeftShoulder -16.448079 15.508618 16.336333
LeftArm 27.014483 -14.028697 -71.587529
LeftForeArm -31.065005 -0.000000 144.053570
LeftHand -19.313322 -0.000000 10.914717
LeftHandThumb1 -26.253704 0.000000 33.147579
RightShoulder 9.928000 25.188742 -7.376160
RightArm 69.377120 -68.478077 50.761148
RightForeArm -10.953009 0.000000 58.448929
RightHand -6.220265 -0.000000 1.287281
RightHandThumb1 -24.326973 -0.000000 -32.862282
LeftUpLeg -11.501749 17.277146 -2.775021
LeftLeg 28.471824 -0.000000 -0.000000
LeftFoot -44.304932 36.226862 -31.648341
LeftToeBase 6.029338 -0.000000 -0.000000
RightUpLeg -99.277153 -42.840210 34.781216
RightLeg 85.264952 -0.000000 -0.000000
RightFoot -31.373042 -32.013463 22.604012
RightToeBase 15.056826 -0.000000 -0.000000
2902
root -0.413077 31.263959 -5.193459 37.166315 -69.212752 -40.802215
Spine 22.295260 16.221793 6.382297
Head -11.574970 18.404900 2.716162
LeftShoulder -16.302013 15.372371 16.430616
LeftArm 27.077555 -13.815162 -71.460899
LeftForeArm -30.838670 0.000000 143.913909
LeftHand -19.509501 -0.000000 11.208599
LeftHandThumb1 -26.253704 0.000000 33.147579
RightShoulder 9.807585 25.110080 -7.410394
RightArm 68.889770 -68.410092 51.292644
RightForeArm -11.191030 -0.000000 58.359872
RightHand -6.087572 -0.000000 1.888253
RightHandThumb1 -24.326973 -0.000000 -32.862282
LeftUpLeg -11.631589 17.445711 -2.716031
LeftLeg 28.504727 -0.000000 -0.000000
LeftFoot -44.262314 36.157428 -31.578403
LeftToeBase 6.034961 -0.000000 -0.000000
RightUpLeg -98.294830 -42.862152 33.984300
RightLeg 85.018949 -0.000000 -0.000000
RightFoot -31.317673 -31.904604 22.693077
RightToeBase 15.046787 -0.000000 -0.000000
2903
root -0.408343 31.268609 -5.194597 37.533813 -69.207243 -41.063163
Spine 22.131389 16.050344 6.406753
Head -11.514836 18.474192 2.758572
LeftShoulder -16.223229 15.254455 16.479485
LeftArm 27.178274 -13.572569 -71.308162
LeftForeArm -30.625519 0.000000 143.721777
LeftHand -19.587176 -0.000000 11.241944
LeftHandThumb1 -26.253704 0.000000 33.147579
RightShoulder 9.700176 25.081264 -7.424530
RightArm 68.411618 -68.418593 51.811817
RightForeArm -11.558080 -0.000000 58.276550
RightHand -6.470988 0.000000 1.062921
RightHandThumb1 -24.326973 -0.000000 -32.862282
LeftUpLeg -11.780124 17.614158 -2.672998
LeftLeg 28.526897 -0.000000 -0.000000
LeftFoot -44.183663 36.084489 -31.477236
LeftToeBase 6.021029 -0.000000 -0.000000
RightUpLeg -97.352787 -42.901301 33.210818
RightLeg 84.779675 -0.000000 -0.000000
RightFoot -31.269080 -31.893310 22.672911
RightToeBase 15.343195 -0.000000 -0.000000
2904
root -0.401476 31.272853 -5.198950 37.796941 -69.168025 -41.206369
Spine 21.960677 15.883992 6.419183
Head -11.455009 18.493077 2.831296
LeftShoulder -16.068273 15.067387 16.587830
LeftArm 27.203537 -13.355964 -71.157482
LeftForeArm -30.527827 -0.000000 143.554941
LeftHand -19.750942 -0.000000 11.418986
LeftHandThumb1 -26.253704 0.000000 33.147579
RightShoulder 9.611767 25.018595 -7.451291
RightArm 68.253731 -68.388751 51.988769
RightForeArm -11.228751 -0.000000 58.160012
RightHand -6.261360 -0.000000 1.622896
RightHandThumb1 -24.326973 -0.000000 -32.862282
LeftUpLeg -11.967275 17.797797 -2.645411
LeftLeg 28.591152 -0.000000 -0.000000
LeftFoot -44.073019 35.959806 -31.357623
LeftToeBase 5.969102 -0.000000 -0.000000
RightUpLeg -96.419850 -42.960298 32.394465
RightLeg 84.582682 -0.000000 -0.000000
RightFoot -31.163878 -31.848439 22.636197
RightToeBase 14.750409 -0.000000 -0.000000
